<svg width="17" height="17" viewBox="0 0 17 17" fill="none" xmlns="http://www.w3.org/2000/svg">
<g clip-path="url(#clip0_488_96807)">
<path d="M10.3746 1.62402H6.37717C6.00922 1.62402 5.71094 1.92231 5.71094 2.29026V3.62272C5.71094 3.99067 6.00922 4.28895 6.37717 4.28895H10.3746C10.7425 4.28895 11.0408 3.99067 11.0408 3.62272V2.29026C11.0408 1.92231 10.7425 1.62402 10.3746 1.62402Z" stroke="white" stroke-width="2" stroke-linecap="round" stroke-linejoin="round"/>
<path d="M11.0397 2.95703H12.3722C12.7256 2.95703 13.0645 3.09742 13.3144 3.3473C13.5643 3.59719 13.7046 3.9361 13.7046 4.2895V13.6168C13.7046 13.9701 13.5643 14.3091 13.3144 14.5589C13.0645 14.8088 12.7256 14.9492 12.3722 14.9492H4.37739C4.024 14.9492 3.68508 14.8088 3.43519 14.5589C3.18531 14.3091 3.04492 13.9701 3.04492 13.6168V4.2895C3.04492 3.9361 3.18531 3.59719 3.43519 3.3473C3.68508 3.09742 4.024 2.95703 4.37739 2.95703H5.70985" stroke="white" stroke-width="2" stroke-linecap="round" stroke-linejoin="round"/>
</g>
<defs>
<clipPath id="clip0_488_96807">
<rect width="15.9896" height="15.9896" fill="white" transform="translate(0.380859 0.291992)"/>
</clipPath>
</defs>
</svg>
