<svg width="89" height="85" viewBox="0 0 89 85" fill="none" xmlns="http://www.w3.org/2000/svg">
<ellipse cx="44.5009" cy="42.5002" rx="43.6494" ry="42.2853" fill="#F25C5E"/>
<path d="M44.5 66.5C50.8652 66.5 56.9697 63.9714 61.4706 59.4706C65.9714 54.9697 68.5 48.8652 68.5 42.5C68.5 36.1348 65.9714 30.0303 61.4706 25.5294C56.9697 21.0286 50.8652 18.5 44.5 18.5C38.1348 18.5 32.0303 21.0286 27.5294 25.5294C23.0286 30.0303 20.5 36.1348 20.5 42.5C20.5 48.8652 23.0286 54.9697 27.5294 59.4706C32.0303 63.9714 38.1348 66.5 44.5 66.5ZM35.58 40.62C33.54 40.62 31.9 39.7 31.18 39.06C30.7785 38.7089 30.5321 38.2133 30.4946 37.6812C30.4572 37.1492 30.6316 36.6239 30.98 36.22C31.7 35.38 32.98 35.3 33.82 36.02C33.82 36.02 34.9 36.86 36.38 36.5C36.8199 36.3793 37.2276 36.1624 37.5735 35.8649C37.9193 35.5675 38.1948 35.1969 38.38 34.78C38.58 34.3097 38.9511 33.933 39.4184 33.7259C39.8856 33.5189 40.414 33.497 40.8967 33.6646C41.3794 33.8323 41.7805 34.1771 42.0187 34.6292C42.2569 35.0813 42.3146 35.607 42.18 36.1C41.78 37.34 40.3 39.58 37.46 40.34C36.82 40.5 36.14 40.62 35.58 40.62ZM51.86 40.38C49.02 39.62 47.54 37.34 47.14 36.14C46.78 35.1 47.34 33.94 48.38 33.62C49.42 33.26 50.58 33.82 50.9 34.86C50.9 34.86 51.42 36.14 52.86 36.54C54.34 36.94 55.38 36.1 55.42 36.06C56.26 35.38 57.5 35.46 58.22 36.3C58.94 37.14 58.86 38.38 58.02 39.1C57.26 39.78 55.66 40.62 53.66 40.62C53.1 40.62 52.5 40.54 51.86 40.38ZM56.248 51.528C56.5058 51.9916 56.5689 52.5386 56.4233 53.0487C56.2778 53.5588 55.9356 53.9902 55.472 54.248C55.0084 54.5058 54.4614 54.5689 53.9513 54.4233C53.4412 54.2778 53.0098 53.9356 52.752 53.472C51.02 50.356 48.012 48.5 44.5 48.5C40.988 48.5 37.98 50.356 36.248 53.472C35.9902 53.9356 35.5588 54.2778 35.0487 54.4233C34.5386 54.5689 33.9916 54.5058 33.528 54.248C33.0644 53.9902 32.7222 53.5588 32.5767 53.0487C32.4311 52.5386 32.4942 51.9916 32.752 51.528C35.172 47.172 39.5 44.5 44.5 44.5C49.5 44.5 53.828 47.172 56.248 51.528Z" fill="white"/>
</svg>
