<svg width="17" height="17" viewBox="0 0 17 17" fill="none" xmlns="http://www.w3.org/2000/svg">
<g clip-path="url(#clip0_3439_43915)">
<path d="M7.48438 9.20226C7.77049 9.58477 8.13552 9.90126 8.55471 10.1303C8.9739 10.3593 9.43744 10.4955 9.91389 10.5296C10.3903 10.5637 10.8686 10.495 11.3161 10.3281C11.7637 10.1611 12.1701 9.89985 12.5078 9.56203L14.5065 7.56333C15.1133 6.93507 15.449 6.09361 15.4414 5.22019C15.4338 4.34677 15.0835 3.51127 14.4659 2.89364C13.8483 2.27602 13.0128 1.92568 12.1393 1.91809C11.2659 1.9105 10.4245 2.24627 9.7962 2.85307L8.65028 3.99232" stroke="#777777" stroke-width="2" stroke-linecap="round" stroke-linejoin="round"/>
<path d="M10.1486 7.87102C9.86248 7.48852 9.49745 7.17202 9.07826 6.943C8.65907 6.71398 8.19553 6.57779 7.71908 6.54367C7.24263 6.50954 6.76441 6.57829 6.31686 6.74524C5.86931 6.91219 5.46291 7.17343 5.1252 7.51126L3.1265 9.50996C2.5197 10.1382 2.18394 10.9797 2.19153 11.8531C2.19912 12.7265 2.54946 13.562 3.16708 14.1796C3.78471 14.7973 4.6202 15.1476 5.49362 15.1552C6.36704 15.1628 7.2085 14.827 7.83677 14.2202L8.97603 13.081" stroke="#777777" stroke-width="2" stroke-linecap="round" stroke-linejoin="round"/>
</g>
<defs>
<clipPath id="clip0_3439_43915">
<rect width="15.9896" height="15.9896" fill="white" transform="translate(0.820312 0.542969)"/>
</clipPath>
</defs>
</svg>
