<svg width="31" height="31" viewBox="0 0 31 31" fill="none" xmlns="http://www.w3.org/2000/svg">
<path d="M15.8154 0.392578H15.7471C7.48169 0.392578 0.78125 7.09302 0.78125 15.3584V15.4267C0.78125 23.6921 7.48169 30.3926 15.7471 30.3926H15.8154C24.0808 30.3926 30.7812 23.6921 30.7812 15.4267V15.3584C30.7812 7.09302 24.0808 0.392578 15.8154 0.392578Z" fill="url(#paint0_linear_488_96775)"/>
<path d="M24.7121 15.3917V15.4432C24.688 19.7367 21.6168 23.3239 17.5545 24.1458C17.2791 24.2005 17.0006 24.2436 16.7168 24.2741C16.4099 24.3056 16.0967 24.3235 15.7814 24.3235C14.5412 24.3235 13.3598 24.0702 12.2856 23.6109L8.14134 24.0523C7.43398 24.128 6.91162 23.4059 7.20486 22.7585L8.31897 20.2917C7.3909 18.8843 6.84961 17.1995 6.84961 15.3917C6.84961 10.4686 10.8572 6.46094 15.7814 6.46094C20.4375 6.46094 24.2728 10.0429 24.6764 14.596C24.7006 14.8567 24.7121 15.1247 24.7121 15.3917Z" fill="white"/>
<path d="M20.075 12.7847C20.4755 12.4568 21.0252 12.9476 20.7435 13.3817L18.8684 16.2742L17.8762 17.8045C17.665 18.1303 17.2215 18.2081 16.9114 17.9737L15.2665 16.7261L14.2522 15.9578C14.1703 15.8958 14.0557 15.8979 13.9758 15.9631L11.4869 17.9937C11.0865 18.3206 10.5379 17.8297 10.8195 17.3957L12.5758 14.6882L13.568 13.1578C13.7793 12.832 14.2228 12.7542 14.5329 12.9886L16.1294 14.1984L17.1426 14.9656C17.2257 15.0277 17.3402 15.0256 17.4201 14.9604L20.075 12.7837V12.7847Z" fill="url(#paint1_linear_488_96775)"/>
<defs>
<linearGradient id="paint0_linear_488_96775" x1="5.16411" y1="26.0097" x2="26.3973" y2="4.77649" gradientUnits="userSpaceOnUse">
<stop stop-color="#0498FA"/>
<stop offset="0.34" stop-color="#5C5EFE"/>
<stop offset="0.73" stop-color="#F44E90"/>
<stop offset="1" stop-color="#FA8679"/>
</linearGradient>
<linearGradient id="paint1_linear_488_96775" x1="12.0587" y1="19.1436" x2="19.5348" y2="11.6675" gradientUnits="userSpaceOnUse">
<stop stop-color="#0498FA"/>
<stop offset="0.34" stop-color="#5C5EFE"/>
<stop offset="0.73" stop-color="#F44E90"/>
<stop offset="1" stop-color="#FA8679"/>
</linearGradient>
</defs>
</svg>
