<svg width="16" height="16" viewBox="0 0 16 16" fill="none" xmlns="http://www.w3.org/2000/svg">
<circle cx="8" cy="8" r="8" stroke="#ECECEC"/>
<path d="M4.03125 9.33008C4.54902 9.33008 4.96875 8.91035 4.96875 8.39258C4.96875 7.87481 4.54902 7.45508 4.03125 7.45508C3.51348 7.45508 3.09375 7.87481 3.09375 8.39258C3.09375 8.91035 3.51348 9.33008 4.03125 9.33008Z" fill="#333333"/>
<path d="M7.78125 9.33008C8.29902 9.33008 8.71875 8.91035 8.71875 8.39258C8.71875 7.87481 8.29902 7.45508 7.78125 7.45508C7.26348 7.45508 6.84375 7.87481 6.84375 8.39258C6.84375 8.91035 7.26348 9.33008 7.78125 9.33008Z" fill="#333333"/>
<path d="M11.5312 9.33008C12.049 9.33008 12.4688 8.91035 12.4688 8.39258C12.4688 7.87481 12.049 7.45508 11.5312 7.45508C11.0135 7.45508 10.5938 7.87481 10.5938 8.39258C10.5938 8.91035 11.0135 9.33008 11.5312 9.33008Z" fill="#333333"/>
</svg>
