<svg width="31" height="31" viewBox="0 0 31 31" fill="none" xmlns="http://www.w3.org/2000/svg">
<rect width="31" height="31" fill="none"/>
<g id="System Guide">
<path d="M-9946 -12921C-9946 -12922.1 -9945.1 -12923 -9944 -12923H11839C11840.1 -12923 11841 -12922.1 11841 -12921V4612C11841 4613.11 11840.1 4614 11839 4614H-9944C-9945.1 4614 -9946 4613.11 -9946 4612V-12921Z" fill="none"/>
<path d="M-9944 -12923V-12922H11839V-12923V-12924H-9944V-12923ZM11841 -12921H11840V4612H11841H11842V-12921H11841ZM11839 4614V4613H-9944V4614V4615H11839V4614ZM-9946 4612H-9945V-12921H-9946H-9947V4612H-9946ZM-9944 4614V4613C-9944.55 4613 -9945 4612.55 -9945 4612H-9946H-9947C-9947 4613.66 -9945.66 4615 -9944 4615V4614ZM11841 4612H11840C11840 4612.55 11839.6 4613 11839 4613V4614V4615C11840.7 4615 11842 4613.66 11842 4612H11841ZM11839 -12923V-12922C11839.6 -12922 11840 -12921.6 11840 -12921H11841H11842C11842 -12922.7 11840.7 -12924 11839 -12924V-12923ZM-9944 -12923V-12924C-9945.66 -12924 -9947 -12922.7 -9947 -12921H-9946H-9945C-9945 -12921.6 -9944.55 -12922 -9944 -12922V-12923Z" fill="white" fill-opacity="0.1"/>
<g id="Send Invitations">
<rect x="-1047.5" y="-261.5" width="1284.17" height="325.198" rx="4.5" stroke="#9747FF" stroke-dasharray="10 5"/>
<g id="Property 1=Variant3">
<g id="Frame 2085663780">
<g id="Frame 2085663718">
<g id="Group">
<path id="Vector" d="M30.7791 15.3931C30.7791 22.969 25.1636 29.2322 17.8686 30.2486C17.1864 30.3432 16.4886 30.3926 15.7802 30.3926C14.9625 30.3926 14.1595 30.3274 13.3776 30.2013C6.23599 29.0514 0.78125 22.8587 0.78125 15.3931C0.78125 7.10876 7.4972 0.392578 15.7812 0.392578C24.0653 0.392578 30.7812 7.10876 30.7812 15.3931H30.7791Z" fill="#FF9800"/>
<g id="fa-solid:sms" clip-path="url(#clip0_0_1)">
<path id="Vector_2" d="M15.7812 8.39062C11.3625 8.39062 7.78125 11.3 7.78125 14.8906C7.78125 16.4406 8.45 17.8594 9.5625 18.975C9.17188 20.55 7.86563 21.9531 7.85 21.9688C7.78125 22.0406 7.7625 22.1469 7.80312 22.2406C7.84375 22.3344 7.93125 22.3906 8.03125 22.3906C10.1031 22.3906 11.6563 21.3969 12.425 20.7844C13.4469 21.1687 14.5813 21.3906 15.7812 21.3906C20.2 21.3906 23.7812 18.4812 23.7812 14.8906C23.7812 11.3 20.2 8.39062 15.7812 8.39062ZM11.7875 16.8906H11.4062C11.2687 16.8906 11.1562 16.7781 11.1562 16.6406V16.1406C11.1562 16.0031 11.2687 15.8906 11.4062 15.8906H11.7906C11.9781 15.8906 12.1156 15.7812 12.1156 15.6844C12.1156 15.6437 12.0906 15.6 12.05 15.5656L11.3656 14.9781C11.1 14.7531 10.95 14.4313 10.95 14.1C10.95 13.4344 11.5438 12.8938 12.275 12.8938H12.6562C12.7937 12.8938 12.9062 13.0063 12.9062 13.1438V13.6438C12.9062 13.7812 12.7937 13.8938 12.6562 13.8938H12.2719C12.0844 13.8938 11.9469 14.0031 11.9469 14.1C11.9469 14.1406 11.9719 14.1844 12.0125 14.2188L12.6969 14.8063C12.9625 15.0312 13.1125 15.3531 13.1125 15.6844C13.1156 16.35 12.5187 16.8906 11.7875 16.8906ZM17.7812 16.6406C17.7812 16.7781 17.6687 16.8906 17.5312 16.8906H17.0312C16.8938 16.8906 16.7812 16.7781 16.7812 16.6406V14.5094L16.0063 16.2531C15.9156 16.4375 15.65 16.4375 15.5594 16.2531L14.7812 14.5094V16.6406C14.7812 16.7781 14.6687 16.8906 14.5312 16.8906H14.0312C13.8938 16.8906 13.7812 16.7781 13.7812 16.6406V13.3906C13.7812 13.1156 14.0062 12.8906 14.2812 12.8906H14.7812C14.9719 12.8906 15.1438 12.9969 15.2281 13.1656L15.7812 14.2719L16.3344 13.1656C16.4188 12.9969 16.5938 12.8906 16.7812 12.8906H17.2812C17.5562 12.8906 17.7812 13.1156 17.7812 13.3906V16.6406ZM19.2906 16.8906H18.9062C18.7688 16.8906 18.6562 16.7781 18.6562 16.6406V16.1406C18.6562 16.0031 18.7688 15.8906 18.9062 15.8906H19.2906C19.4781 15.8906 19.6156 15.7812 19.6156 15.6844C19.6156 15.6437 19.5906 15.6 19.55 15.5656L18.8656 14.9781C18.6 14.7531 18.45 14.4313 18.45 14.1C18.45 13.4344 19.0437 12.8938 19.775 12.8938H20.1562C20.2937 12.8938 20.4062 13.0063 20.4062 13.1438V13.6438C20.4062 13.7812 20.2937 13.8938 20.1562 13.8938H19.7719C19.5844 13.8938 19.4469 14.0031 19.4469 14.1C19.4469 14.1406 19.4719 14.1844 19.5125 14.2188L20.1969 14.8063C20.4625 15.0312 20.6125 15.3531 20.6125 15.6844C20.6156 16.35 20.0219 16.8906 19.2906 16.8906Z" fill="#FFF5D1"/>
</g>
</g>
</g>
</g>
</g>
</g>
</g>
<defs>
<clipPath id="clip0_0_1">
<rect width="16" height="16" fill="white" transform="translate(7.78125 7.39062)"/>
</clipPath>
</defs>
</svg>
