<svg width="31" height="31" viewBox="0 0 31 31" fill="none" xmlns="http://www.w3.org/2000/svg">
<path d="M15.3154 0.392578H15.2471C6.98169 0.392578 0.28125 7.09301 0.28125 15.3584V15.4267C0.28125 23.6921 6.98169 30.3926 15.2471 30.3926H15.3154C23.5808 30.3926 30.2812 23.6921 30.2812 15.4267V15.3584C30.2812 7.09301 23.5808 0.392578 15.3154 0.392578Z" fill="#00E510"/>
<path d="M18.2045 19.7807C14.365 19.7807 11.2413 16.6559 11.2402 12.8165C11.2413 11.8432 12.0338 11.0518 13.0049 11.0518C13.1048 11.0518 13.2036 11.0602 13.2982 11.077C13.5063 11.1117 13.7039 11.1821 13.8857 11.2882C13.912 11.304 13.9299 11.3292 13.9341 11.3587L14.3398 13.9159C14.345 13.9463 14.3356 13.9758 14.3156 13.9978C14.0917 14.2459 13.8058 14.4246 13.4874 14.5139L13.3339 14.557L13.3917 14.7052C13.9151 16.0379 14.9809 17.1026 16.3147 17.6282L16.4629 17.687L16.506 17.5336C16.5953 17.2151 16.774 16.9292 17.022 16.7053C17.0399 16.6885 17.0641 16.6801 17.0883 16.6801C17.0935 16.6801 17.0988 16.6801 17.1051 16.6812L19.6623 17.0869C19.6927 17.0921 19.718 17.1089 19.7337 17.1352C19.8388 17.317 19.9093 17.5157 19.945 17.7238C19.9618 17.8163 19.9692 17.914 19.9692 18.016C19.9692 18.9882 19.1777 19.7796 18.2045 19.7807Z" fill="#FDFDFD"/>
<path d="M25.0131 14.5504C24.8061 12.2108 23.734 10.0404 21.9945 8.43967C20.2445 6.82947 17.9743 5.94238 15.6 5.94238C10.3889 5.94238 6.14896 10.1823 6.14896 15.3934C6.14896 17.1423 6.63138 18.8461 7.54474 20.3301L5.50781 24.8391L12.0296 24.1444C13.1636 24.609 14.3639 24.8444 15.5989 24.8444C15.9237 24.8444 16.2569 24.8276 16.5911 24.7929C16.8854 24.7614 17.1828 24.7151 17.475 24.6563C21.839 23.7744 25.0247 19.9013 25.0499 15.4438V15.3934C25.0499 15.1096 25.0373 14.8258 25.0121 14.5504H25.0131ZM12.2808 22.1653L8.67252 22.55L9.74984 20.163L9.53437 19.874C9.51861 19.853 9.50285 19.832 9.48498 19.8078C8.54955 18.516 8.05555 16.9899 8.05555 15.3944C8.05555 11.2344 11.4399 7.85003 15.6 7.85003C19.4972 7.85003 22.8007 10.8907 23.1191 14.7722C23.136 14.9803 23.1454 15.1895 23.1454 15.3955C23.1454 15.4543 23.1444 15.5122 23.1433 15.5742C23.0634 19.0542 20.6324 22.0097 17.2312 22.7623C16.9716 22.8201 16.7057 22.8642 16.4408 22.8926C16.1654 22.9241 15.8827 22.9399 15.6021 22.9399C14.6025 22.9399 13.6314 22.7465 12.7138 22.3639C12.6118 22.3229 12.512 22.2788 12.4184 22.2336L12.2818 22.1674L12.2808 22.1653Z" fill="#FDFDFD"/>
</svg>
