<svg width="20" height="20" viewBox="0 0 20 20" fill="none" xmlns="http://www.w3.org/2000/svg">
<path d="M8.33464 13.7502L10.8346 14.5835C10.8346 14.5835 17.0846 13.3335 17.918 13.3335C18.7513 13.3335 18.7513 14.1668 17.918 15.0002C17.0846 15.8335 14.168 18.3335 11.668 18.3335C9.16797 18.3335 7.5013 17.0835 5.83464 17.0835H1.66797" stroke="#333333" stroke-width="2" stroke-linecap="round" stroke-linejoin="round"/>
<path d="M1.66797 12.0833C2.5013 11.25 4.16797 10 5.83464 10C7.5013 10 11.4596 11.6667 12.0846 12.5C12.7096 13.3333 10.8346 14.5833 10.8346 14.5833" stroke="#333333" stroke-width="2" stroke-linecap="round" stroke-linejoin="round"/>
<path d="M14.168 10.4167C14.8583 10.4167 15.418 9.8571 15.418 9.16675C15.418 8.47639 14.8583 7.91675 14.168 7.91675C13.4776 7.91675 12.918 8.47639 12.918 9.16675C12.918 9.8571 13.4776 10.4167 14.168 10.4167Z" fill="#333333" stroke="#333333" stroke-width="2"/>
<path d="M9.16797 7.5C9.85832 7.5 10.418 6.94036 10.418 6.25C10.418 5.55964 9.85832 5 9.16797 5C8.47761 5 7.91797 5.55964 7.91797 6.25C7.91797 6.94036 8.47761 7.5 9.16797 7.5Z" fill="#333333" stroke="#333333" stroke-width="2"/>
<path d="M14.168 4.16675C14.8583 4.16675 15.418 3.6071 15.418 2.91675C15.418 2.22639 14.8583 1.66675 14.168 1.66675C13.4776 1.66675 12.918 2.22639 12.918 2.91675C12.918 3.6071 13.4776 4.16675 14.168 4.16675Z" fill="#333333" stroke="#333333" stroke-width="2"/>
</svg>
