<svg width="24" height="24" viewBox="0 0 24 24" fill="none" xmlns="http://www.w3.org/2000/svg">
<g clip-path="url(#clip0_2_11457)">
<path d="M14.625 7.5625C15.2118 7.5625 15.6875 8.0382 15.6875 8.625C15.6875 9.2118 15.2118 9.6875 14.625 9.6875C14.0382 9.6875 13.5625 9.2118 13.5625 8.625C13.5625 8.0382 14.0382 7.5625 14.625 7.5625Z" fill="#F25C5E" stroke="#F25C5E" stroke-width="0.125"/>
<path d="M9.375 7.5625C9.9618 7.5625 10.4375 8.0382 10.4375 8.625C10.4375 9.2118 9.9618 9.6875 9.375 9.6875C8.7882 9.6875 8.3125 9.2118 8.3125 8.625C8.3125 8.0382 8.7882 7.5625 9.375 7.5625Z" fill="#F25C5E" stroke="#F25C5E" stroke-width="0.125"/>
<path d="M12 12V21" stroke="#F25C5E" stroke-width="2" stroke-linecap="round" stroke-linejoin="round"/>
<path d="M19.5 13.5C19.5 15.4891 18.7098 17.3968 17.3033 18.8033C15.8968 20.2098 13.9891 21 12 21C10.0109 21 8.10322 20.2098 6.6967 18.8033C5.29018 17.3968 4.5 15.4891 4.5 13.5V10.5C4.5 8.51088 5.29018 6.60322 6.6967 5.1967C8.10322 3.79018 10.0109 3 12 3C13.9891 3 15.8968 3.79018 17.3033 5.1967C18.7098 6.60322 19.5 8.51088 19.5 10.5V13.5Z" stroke="#F25C5E" stroke-width="2" stroke-linecap="round" stroke-linejoin="round"/>
<path d="M21.7488 17.2506L19.0469 16.0703" stroke="#F25C5E" stroke-width="2" stroke-linecap="round" stroke-linejoin="round"/>
<path d="M21.7488 6.75L19.0469 7.93031" stroke="#F25C5E" stroke-width="2" stroke-linecap="round" stroke-linejoin="round"/>
<path d="M2.25 6.75L4.95188 7.93031" stroke="#F25C5E" stroke-width="2" stroke-linecap="round" stroke-linejoin="round"/>
<path d="M2.25 17.2506L4.95188 16.0703" stroke="#F25C5E" stroke-width="2" stroke-linecap="round" stroke-linejoin="round"/>
<path d="M1.5 12H22.5" stroke="#F25C5E" stroke-width="2" stroke-linecap="round" stroke-linejoin="round"/>
</g>
<defs>
<clipPath id="clip0_2_11457">
<rect width="24" height="24" fill="white"/>
</clipPath>
</defs>
</svg>
