<svg width="22" height="21" viewBox="0 0 22 21" fill="none" xmlns="http://www.w3.org/2000/svg">
<path d="M7 8.60815L4 5.36491L1 8.60815" stroke="#333333" stroke-width="2" stroke-linecap="round" stroke-linejoin="round"/>
<path d="M11 8.60816V14.5541C11 15.5576 10.6313 16.52 9.97487 17.2296C9.3185 17.9392 8.42826 18.3379 7.5 18.3379C6.57174 18.3379 5.6815 17.9392 5.02513 17.2296C4.36875 16.52 4 15.5576 4 14.5541V5.36492" stroke="#333333" stroke-width="2" stroke-linecap="round" stroke-linejoin="round"/>
<path d="M15 11.3108L18 14.554L21 11.3108" stroke="#333333" stroke-width="2" stroke-linecap="round" stroke-linejoin="round"/>
<path d="M11 11.3108V5.36484C11 4.36132 11.3687 3.3989 12.0251 2.6893C12.6815 1.9797 13.5717 1.58105 14.5 1.58105C15.4283 1.58105 16.3185 1.9797 16.9749 2.6893C17.6313 3.3989 18 4.36132 18 5.36484V14.554" stroke="#333333" stroke-width="2" stroke-linecap="round" stroke-linejoin="round"/>
<path d="M4.25 3.2027C4.94036 3.2027 5.5 2.59768 5.5 1.85135C5.5 1.10502 4.94036 0.5 4.25 0.5C3.55964 0.5 3 1.10502 3 1.85135C3 2.59768 3.55964 3.2027 4.25 3.2027Z" stroke="#333333" stroke-linecap="round" stroke-linejoin="round"/>
<path d="M2.5 4.28372C2.8531 3.63758 3.4944 3.20264 4.25 3.20264C5.0056 3.20264 5.6469 3.63758 6 4.28372" stroke="#333333" stroke-linecap="round" stroke-linejoin="round"/>
<path d="M17 18.4151L17.6 18.8784L19 17.7974" stroke="#333333" stroke-linecap="round" stroke-linejoin="round"/>
<path d="M18 20.5001C19.1046 20.5001 20 19.5321 20 18.3379C20 17.1438 19.1046 16.1758 18 16.1758C16.8954 16.1758 16 17.1438 16 18.3379C16 19.5321 16.8954 20.5001 18 20.5001Z" stroke="#333333" stroke-linecap="round" stroke-linejoin="round"/>
</svg>
