<svg width="20" height="20" viewBox="0 0 20 20" fill="none" xmlns="http://www.w3.org/2000/svg">
<g clip-path="url(#clip0_647_16678)">
<path d="M10 13.125C11.7259 13.125 13.125 11.7259 13.125 10C13.125 8.27411 11.7259 6.875 10 6.875C8.27411 6.875 6.875 8.27411 6.875 10C6.875 11.7259 8.27411 13.125 10 13.125Z" stroke="#333333" stroke-width="2" stroke-linecap="round" stroke-linejoin="round"/>
<path d="M3.23594 13.9132C2.8906 13.3184 2.62604 12.6803 2.44922 12.0156L3.76016 10.375C3.74531 10.1241 3.74531 9.87265 3.76016 9.62183L2.45 7.9812C2.62652 7.31642 2.89054 6.67802 3.23516 6.08276L5.32187 5.84839C5.48851 5.66065 5.66617 5.48299 5.85391 5.31636L6.08828 3.23042C6.68269 2.88745 7.32004 2.62499 7.98359 2.44995L9.62422 3.76089C9.87504 3.74605 10.1265 3.74605 10.3773 3.76089L12.018 2.45073C12.6828 2.62725 13.3211 2.89127 13.9164 3.23589L14.1508 5.32261C14.3385 5.48924 14.5162 5.6669 14.6828 5.85464L16.7687 6.08901C17.1141 6.68383 17.3786 7.32199 17.5555 7.98667L16.2445 9.6273C16.2594 9.87812 16.2594 10.1296 16.2445 10.3804L17.5547 12.021C17.3794 12.6856 17.1167 13.324 16.7734 13.9195L14.6867 14.1539C14.5201 14.3416 14.3424 14.5193 14.1547 14.6859L13.9203 16.7718C13.3255 17.1172 12.6873 17.3817 12.0227 17.5585L10.382 16.2476C10.1312 16.2625 9.87973 16.2625 9.62891 16.2476L7.98828 17.5578C7.32369 17.3825 6.68531 17.1198 6.08984 16.7765L5.85547 14.6898C5.66773 14.5232 5.49007 14.3455 5.32344 14.1578L3.23594 13.9132Z" stroke="#333333" stroke-width="2" stroke-linecap="round" stroke-linejoin="round"/>
</g>
<defs>
<clipPath id="clip0_647_16678">
<rect width="20" height="20" fill="white"/>
</clipPath>
</defs>
</svg>
