<svg width="20" height="20" viewBox="0 0 20 20" fill="none" xmlns="http://www.w3.org/2000/svg">
<g clip-path="url(#clip0_647_16658)">
<path d="M6.84844 4.43208L6.52344 2.58521" stroke="#333333" stroke-width="2" stroke-linecap="round" stroke-linejoin="round"/>
<path d="M4.43047 5.97349L2.89453 4.89771" stroke="#333333" stroke-width="2" stroke-linecap="round" stroke-linejoin="round"/>
<path d="M3.80781 8.77417L1.96094 9.09995" stroke="#333333" stroke-width="2" stroke-linecap="round" stroke-linejoin="round"/>
<path d="M9.64844 5.054L10.7234 3.51807" stroke="#333333" stroke-width="2" stroke-linecap="round" stroke-linejoin="round"/>
<path d="M7.50061 11.2501C7.56072 10.2135 7.92302 9.21717 8.54281 8.38408C9.1626 7.551 10.0128 6.91762 10.9883 6.5621C11.9639 6.20658 13.0223 6.14449 14.0327 6.38349C15.0432 6.62249 15.9616 7.15211 16.6745 7.90701C17.3875 8.6619 17.8638 9.60902 18.0447 10.6315C18.2256 11.654 18.1032 12.707 17.6926 13.6607C17.282 14.6144 16.6011 15.427 15.734 15.9982C14.8668 16.5694 13.8515 16.8743 12.8131 16.8751H6.56311C6.0644 16.8746 5.57177 16.7656 5.1194 16.5557C4.66704 16.3458 4.26576 16.0399 3.94343 15.6594C3.62109 15.2789 3.38542 14.8327 3.25276 14.352C3.1201 13.8713 3.09363 13.3674 3.17519 12.8754C3.25674 12.3834 3.44438 11.9151 3.72506 11.5029C4.00575 11.0907 4.37277 10.7444 4.80065 10.4883C5.22853 10.2321 5.70703 10.0721 6.20294 10.0194C6.69885 9.96664 7.2003 10.0224 7.67248 10.1829" stroke="#333333" stroke-width="2" stroke-linecap="round" stroke-linejoin="round"/>
<path d="M4.66071 10.5743C4.30989 10.1664 4.05095 9.68771 3.90149 9.17084C3.75203 8.65397 3.71555 8.111 3.79451 7.57878C3.87348 7.04656 4.06605 6.53757 4.35914 6.08637C4.65224 5.63516 5.039 5.25231 5.49315 4.96381C5.94731 4.67531 6.45823 4.48792 6.99122 4.41436C7.52421 4.3408 8.06679 4.3828 8.58211 4.5375C9.09744 4.6922 9.57344 4.95598 9.97779 5.31093C10.3821 5.66587 10.7054 6.10368 10.9256 6.59461" stroke="#333333" stroke-width="2" stroke-linecap="round" stroke-linejoin="round"/>
</g>
<defs>
<clipPath id="clip0_647_16658">
<rect width="20" height="20" fill="white"/>
</clipPath>
</defs>
</svg>
