<svg width="20" height="20" viewBox="0 0 20 20" fill="none" xmlns="http://www.w3.org/2000/svg">
<g clip-path="url(#clip0_550_92967)">
<path d="M16.25 3.125H3.75C3.40482 3.125 3.125 3.40482 3.125 3.75V16.25C3.125 16.5952 3.40482 16.875 3.75 16.875H16.25C16.5952 16.875 16.875 16.5952 16.875 16.25V3.75C16.875 3.40482 16.5952 3.125 16.25 3.125Z" stroke="#333333" stroke-width="1.5" stroke-linecap="round" stroke-linejoin="round"/>
<path d="M13.75 1.875V4.375" stroke="#333333" stroke-width="1.5" stroke-linecap="round" stroke-linejoin="round"/>
<path d="M6.25 1.875V4.375" stroke="#333333" stroke-width="1.5" stroke-linecap="round" stroke-linejoin="round"/>
<path d="M3.125 6.875H16.875" stroke="#333333" stroke-width="1.5" stroke-linecap="round" stroke-linejoin="round"/>
<path d="M6.875 10L8.125 9.375V14.375" stroke="#333333" stroke-width="1.5" stroke-linecap="round" stroke-linejoin="round"/>
<path d="M10.7922 10.0001C10.8777 9.85288 10.9924 9.72464 11.1293 9.62331C11.2662 9.52197 11.4223 9.44967 11.5881 9.41085C11.7539 9.37202 11.9259 9.36749 12.0936 9.39753C12.2612 9.42756 12.4209 9.49154 12.563 9.58552C12.705 9.67951 12.8263 9.80153 12.9195 9.94408C13.0126 10.0866 13.0757 10.2467 13.1048 10.4145C13.1338 10.5823 13.1283 10.7543 13.0885 10.9199C13.0488 11.0855 12.9756 11.2412 12.8734 11.3775L10.625 14.3751H13.125" stroke="#333333" stroke-width="1.5" stroke-linecap="round" stroke-linejoin="round"/>
</g>
<defs>
<clipPath id="clip0_550_92967">
<rect width="20" height="20" fill="white"/>
</clipPath>
</defs>
</svg>
