<svg width="32" height="33" viewBox="0 0 32 33" fill="none" xmlns="http://www.w3.org/2000/svg">
<path d="M16 20.1621V11.1621" stroke="#2966FF" stroke-width="2" stroke-linecap="round" stroke-linejoin="round"/>
<path d="M16 26.1621C17.6569 26.1621 19 24.819 19 23.1621C19 21.5053 17.6569 20.1621 16 20.1621C14.3431 20.1621 13 21.5053 13 23.1621C13 24.819 14.3431 26.1621 16 26.1621Z" stroke="#2966FF" stroke-width="2" stroke-linecap="round" stroke-linejoin="round"/>
<path d="M12 6.16211C12 5.10124 12.4214 4.08383 13.1716 3.33368C13.9217 2.58354 14.9391 2.16211 16 2.16211C17.0609 2.16211 18.0783 2.58354 18.8284 3.33368C19.5786 4.08383 20 5.10124 20 6.16211V17.4121C21.223 18.2637 22.1423 19.4833 22.6241 20.8936C23.1059 22.3038 23.125 23.831 22.6788 25.2529C22.2325 26.6747 21.3441 27.9171 20.1429 28.7991C18.9416 29.6811 17.4903 30.1567 16 30.1567C14.5097 30.1567 13.0584 29.6811 11.8571 28.7991C10.6559 27.9171 9.7675 26.6747 9.32123 25.2529C8.87496 23.831 8.89412 22.3038 9.37592 20.8936C9.85772 19.4833 10.777 18.2637 12 17.4121V6.16211Z" stroke="#2966FF" stroke-width="2" stroke-linecap="round" stroke-linejoin="round"/>
</svg>
